<?xml version="1.0" encoding="utf-8"?>
<svg viewBox="0 0 128 128" xmlns="http://www.w3.org/2000/svg">
  <circle style="fill: none; stroke: var(--icon-color-primary, #000); stroke-width: 6px;" cx="64" cy="64" r="49.583"/>
  <path style="fill: var(--icon-color-primary, #000);" d="M 39.725 41.186 L 46.05 41.178 L 64.138 85.373 L 57.511 85.354 L 52.338 71.973 L 33.91 71.939 L 29.132 85.355 L 22.832 85.334 L 39.725 41.186 Z M 35.591 67.172 L 50.576 67.189 L 42.819 46.037 L 35.591 67.172 Z"/>
  <path d="M 68.605 41.11 L 87.748 41.11 C 87.748 41.11 88.865 41.148 89.441 41.148 C 95.388 41.148 100.208 45.969 100.208 51.915 C 100.208 56.267 97.626 60.016 93.912 61.713 C 98.692 63.233 102.161 67.763 102.161 73.115 C 102.161 79.712 96.891 85.059 90.389 85.059 C 89.48 85.059 87.748 85.341 87.748 85.341 L 68.605 85.341 L 68.605 41.11 Z M 74.557 80.201 L 88.246 80.201 L 88.246 80.172 C 88.459 80.19 88.675 80.199 88.893 80.199 C 93.108 80.199 96.524 76.783 96.524 72.568 C 96.524 68.354 93.108 64.938 88.893 64.938 C 88.675 64.938 88.459 64.947 88.246 64.965 L 88.246 64.963 L 74.557 64.963 L 74.557 80.201 Z M 87.463 46.628 C 87.082 46.628 86.345 46.535 86.345 46.535 L 74.44 46.535 L 74.44 60.069 L 86.345 60.069 C 86.345 60.069 87.082 59.977 87.463 59.977 C 91.238 59.977 94.298 56.988 94.298 53.302 C 94.298 49.616 91.238 46.628 87.463 46.628 Z" style="fill: var(--icon-color-primary, #000);"/>
</svg>