<?xml version="1.0" encoding="UTF-8"?>
<!DOCTYPE svg PUBLIC "-//W3C//DTD SVG 1.1//EN" "http://www.w3.org/Graphics/SVG/1.1/DTD/svg11.dtd">
<svg version="1.1" xmlns="http://www.w3.org/2000/svg" xmlns:xlink="http://www.w3.org/1999/xlink" x="0" y="0" width="32px" height="32px" viewBox="0, 0, 128, 128">
  <g id="Layer_1">
    <g>
      <path d="M64,9.894 C33.366,9.894 8.525,34.731 8.525,65.37 C8.525,89.88 24.42,110.675 46.462,118.01 C49.235,118.524 50.253,116.807 50.253,115.342 C50.253,114.019 50.201,109.649 50.177,105.013 C34.744,108.369 31.487,98.468 31.487,98.468 C28.964,92.056 25.328,90.351 25.328,90.351 C20.295,86.908 25.707,86.978 25.707,86.978 C31.278,87.37 34.211,92.695 34.211,92.695 C39.159,101.176 47.189,98.724 50.355,97.307 C50.853,93.721 52.29,91.274 53.877,89.889 C41.555,88.486 28.602,83.729 28.602,62.472 C28.602,56.416 30.769,51.467 34.318,47.582 C33.742,46.185 31.843,40.542 34.855,32.901 C34.855,32.901 39.514,31.41 50.115,38.587 C54.54,37.358 59.286,36.742 64,36.721 C68.715,36.742 73.464,37.358 77.898,38.587 C88.486,31.41 93.138,32.901 93.138,32.901 C96.158,40.542 94.258,46.185 93.682,47.582 C97.239,51.467 99.392,56.416 99.392,62.472 C99.392,83.78 86.414,88.471 74.061,89.845 C76.05,91.566 77.823,94.942 77.823,100.118 C77.823,107.541 77.759,113.515 77.759,115.342 C77.759,116.818 78.758,118.548 81.57,118.003 C103.6,110.659 119.475,89.872 119.475,65.37 C119.475,34.731 94.638,9.894 64,9.894" fill="var(--icon-color-primary, #161514)"/>
      <path d="M29.536,89.545 C29.414,89.821 28.98,89.903 28.585,89.714 C28.183,89.533 27.957,89.157 28.088,88.881 C28.207,88.597 28.641,88.518 29.043,88.708 C29.446,88.889 29.676,89.269 29.536,89.545" fill="var(--icon-color-primary, #161514)"/>
      <path d="M31.783,92.051 C31.519,92.296 31.001,92.183 30.651,91.795 C30.288,91.408 30.22,90.891 30.488,90.642 C30.761,90.397 31.262,90.512 31.626,90.898 C31.989,91.29 32.06,91.803 31.783,92.051" fill="var(--icon-color-primary, #161514)"/>
      <path d="M33.971,95.246 C33.631,95.482 33.075,95.261 32.731,94.768 C32.391,94.274 32.391,93.683 32.739,93.446 C33.083,93.209 33.631,93.422 33.979,93.911 C34.318,94.413 34.318,95.005 33.971,95.246" fill="var(--icon-color-primary, #161514)"/>
      <path d="M36.967,98.333 C36.663,98.668 36.016,98.578 35.541,98.121 C35.056,97.673 34.921,97.039 35.226,96.703 C35.534,96.367 36.185,96.462 36.663,96.915 C37.145,97.362 37.292,98.001 36.967,98.333" fill="var(--icon-color-primary, #161514)"/>
      <path d="M41.101,100.125 C40.967,100.56 40.343,100.757 39.715,100.573 C39.087,100.382 38.677,99.874 38.804,99.434 C38.934,98.997 39.561,98.791 40.194,98.989 C40.82,99.178 41.232,99.683 41.101,100.125" fill="var(--icon-color-primary, #161514)"/>
      <path d="M45.641,100.458 C45.657,100.915 45.124,101.295 44.464,101.303 C43.801,101.318 43.265,100.947 43.257,100.497 C43.257,100.035 43.778,99.659 44.441,99.648 C45.101,99.636 45.641,100.003 45.641,100.458" fill="var(--icon-color-primary, #161514)"/>
      <path d="M49.866,99.738 C49.945,100.185 49.487,100.643 48.832,100.766 C48.188,100.883 47.591,100.608 47.51,100.165 C47.43,99.707 47.896,99.249 48.54,99.13 C49.195,99.016 49.782,99.285 49.866,99.738" fill="var(--icon-color-primary, #161514)"/>
    </g>
  </g>
</svg>
