<?xml version="1.0" encoding="utf-8"?>
<svg version="1.1" id="Capa_1" x="0px" y="0px" width="460.298px" height="460.297px" viewBox="0 0 460.298 460.297" style="enable-background:new 0 0 460.298 460.297;" xmlns="http://www.w3.org/2000/svg">
  <path d="M 230.149 120.939 L 65.986 256.274 C 65.986 256.465 65.938 256.746 65.842 257.129 C 65.748 257.509 65.698 257.785 65.698 257.981 L 65.698 395.022 C 65.698 399.97 67.507 404.258 71.124 407.869 C 74.74 411.482 79.022 413.3 83.971 413.3 L 193.601 413.3 L 193.601 303.664 L 266.698 303.664 L 266.698 413.304 L 376.327 413.304 C 381.275 413.304 385.563 411.49 389.174 407.869 C 392.791 404.262 394.606 399.971 394.606 395.022 L 394.606 257.981 C 394.606 257.221 394.502 256.647 394.318 256.274 L 230.149 120.939 Z" style="fill: var(--icon-color-primary, #000);"/>
  <path d="M 457.122 225.438 L 394.6 173.476 L 394.6 56.989 C 394.6 54.326 393.744 52.136 392.026 50.422 C 390.322 48.71 388.132 47.854 385.463 47.854 L 330.647 47.854 C 327.981 47.854 325.792 48.71 324.077 50.422 C 322.366 52.136 321.511 54.327 321.511 56.989 L 321.511 112.662 L 251.849 54.417 C 245.765 49.468 238.531 46.994 230.155 46.994 C 221.78 46.994 214.547 49.468 208.457 54.417 L 3.172 225.438 C 1.269 226.958 0.226 229.004 0.032 231.574 C -0.161 234.142 0.504 236.385 2.029 238.287 L 19.73 259.415 C 21.255 261.127 23.251 262.174 25.726 262.557 C 28.011 262.749 30.296 262.081 32.581 260.559 L 230.149 95.817 L 427.719 260.558 C 429.245 261.886 431.24 262.549 433.715 262.549 L 434.573 262.549 C 437.044 262.173 439.036 261.119 440.569 259.411 L 458.272 238.286 C 459.794 236.38 460.461 234.141 460.263 231.57 C 460.068 229.007 459.021 226.961 457.122 225.438 Z" style="fill: var(--icon-color-primary, #000);"/>
</svg>