<?xml version="1.0" encoding="UTF-8"?>
<!DOCTYPE svg PUBLIC "-//W3C//DTD SVG 1.1//EN" "http://www.w3.org/Graphics/SVG/1.1/DTD/svg11.dtd">
<svg version="1.1" xmlns="http://www.w3.org/2000/svg" xmlns:xlink="http://www.w3.org/1999/xlink" x="0" y="0" width="128" height="128" viewBox="0, 0, 128, 128">
  <g id="Layer_1">
    <path d="M118.53,-0 C123.75,-0 127.998,4.132 127.998,9.23 L127.998,118.763 C127.998,123.861 123.75,128 118.53,128 L9.442,128 C4.233,128 0.002,123.861 0.002,118.763 L0.002,9.23 C0.002,4.132 4.233,-0 9.442,-0 L118.53,-0 z M37.972,47.986 L18.967,47.986 L18.967,109.07 L37.972,109.07 L37.972,47.986 z M86.298,46.471 C77.065,46.471 70.871,51.534 68.339,56.338 L68.076,56.338 L68.076,47.986 L49.879,47.986 L49.879,109.07 L68.841,109.07 L68.841,78.859 C68.841,70.887 70.349,63.168 80.229,63.168 C89.972,63.168 90.093,72.281 90.092,79.364 L90.092,109.07 L109.075,109.07 L109.075,75.57 C109.076,59.118 105.524,46.471 86.298,46.471 z M26.25,17.845 C20.834,19.426 18.013,23.121 17.46,28.629 C17.46,34.709 22.377,39.641 28.475,39.641 C34.548,39.641 39.476,34.709 39.476,28.629 C39.476,22.553 34.548,17.621 28.474,17.621 L26.25,17.845 z" fill="var(--icon-color-primary, #0071A1)"/>
  </g>
</svg>
