<?xml version="1.0" encoding="utf-8"?>
<svg width="74" height="79" viewBox="0 0 74 79" fill="var(--icon-color-primary, #161514)" xmlns="http://www.w3.org/2000/svg">
  <path d="M 71.284 19.2 C 70.219 11.371 63.321 5.201 55.145 4.006 C 53.765 3.804 48.538 3.069 36.431 3.069 L 36.34 3.069 C 24.229 3.069 21.631 3.804 20.251 4.006 C 12.302 5.168 5.043 10.712 3.282 18.633 C 2.435 22.534 2.344 26.859 2.502 30.827 C 2.726 36.516 2.769 42.195 3.292 47.861 C 3.653 51.625 4.283 55.359 5.177 59.035 C 6.851 65.824 13.628 71.473 20.268 73.778 C 27.377 76.182 35.022 76.581 42.347 74.93 C 43.153 74.745 43.95 74.53 44.738 74.285 C 46.516 73.725 48.602 73.099 50.136 72 C 50.157 71.984 50.174 71.964 50.186 71.941 C 50.198 71.918 50.205 71.893 50.206 71.867 L 50.206 66.377 C 50.205 66.352 50.2 66.329 50.189 66.307 C 50.178 66.285 50.162 66.266 50.143 66.251 C 50.124 66.236 50.101 66.226 50.077 66.221 C 50.054 66.215 50.029 66.216 50.005 66.221 C 45.312 67.33 40.502 67.886 35.677 67.877 C 27.373 67.877 25.14 63.979 24.5 62.356 C 23.986 60.954 23.66 59.491 23.529 58.005 C 23.528 57.98 23.533 57.955 23.543 57.932 C 23.553 57.909 23.569 57.889 23.588 57.873 C 23.608 57.858 23.631 57.847 23.656 57.841 C 23.68 57.836 23.706 57.836 23.73 57.843 C 28.345 58.944 33.076 59.5 37.824 59.498 C 38.965 59.498 40.104 59.498 41.246 59.469 C 46.02 59.336 51.053 59.094 55.751 58.187 C 55.868 58.164 55.985 58.144 56.086 58.114 C 63.496 56.707 70.547 52.289 71.264 41.102 C 71.291 40.662 71.358 36.489 71.358 36.032 C 71.361 34.479 71.863 25.015 71.284 19.2 Z M 59.879 47.113 L 52.088 47.113 L 52.088 28.237 C 52.088 24.263 50.413 22.236 47.008 22.236 C 43.265 22.236 41.39 24.634 41.39 29.369 L 41.39 39.702 L 33.645 39.702 L 33.645 29.369 C 33.645 24.634 31.766 22.236 28.023 22.236 C 24.638 22.236 22.947 24.263 22.943 28.237 L 22.943 47.113 L 15.158 47.113 L 15.158 27.664 C 15.158 23.69 16.184 20.533 18.236 18.193 C 20.352 15.858 23.128 14.659 26.573 14.659 C 30.561 14.659 33.575 16.176 35.584 19.206 L 37.522 22.425 L 39.464 19.206 C 41.473 16.176 44.487 14.659 48.468 14.659 C 51.91 14.659 54.686 15.858 56.809 18.193 C 58.86 20.531 59.886 23.688 59.886 27.664 L 59.879 47.113 Z" fill="inherit" style=""/>
</svg>