<?xml version="1.0" encoding="utf-8"?>
<svg viewBox="0 0 128 128" xmlns="http://www.w3.org/2000/svg">
  <g style="" id="person">
    <path fill="var(--icon-color-primary, #000)" d="M 92.095 91.507 C 93.852 97.942 86.942 128 86.942 128 L 41.734 127.918 C 41.734 127.918 34.009 99.396 35.924 91.451 C 37.474 85.02 48.388 78.814 48.388 78.814 C 51.777 83.995 57.631 87.418 64.284 87.418 C 70.947 87.418 76.808 83.986 80.194 78.793 C 80.194 78.793 90.38 85.231 92.095 91.507 Z" style=""/>
    <circle fill="var(--icon-color-primary, #000)" style="stroke-width: 1.14823; vector-effect: non-scaling-stroke;" cx="64.283" cy="67.979" r="15.395"/>
  </g>
  <g style="" id="small-person" transform="matrix(1.352477, 0, 0, 1.352477, -12.131477, -5.778113)">
    <path fill="var(--icon-color-primary, #000)" d="M 32.821 42.432 C 33.523 45.002 30.764 57.003 30.764 57.003 L 12.713 56.97 C 12.713 56.97 9.629 45.582 10.394 42.41 C 11.013 39.842 15.37 37.364 15.37 37.364 C 16.723 39.433 19.061 40.8 21.717 40.8 C 24.377 40.8 26.718 39.429 28.07 37.356 C 28.07 37.356 32.137 39.926 32.821 42.432 Z" style=""/>
    <circle fill="var(--icon-color-primary, #000)" style="stroke-width: 1.14823; vector-effect: non-scaling-stroke;" cx="21.781" cy="33.265" r="6.473"/>
  </g>
  <g style="" id="g-1" transform="matrix(1.352477, 0, 0, 1.352477, 35.994766, -35.708374)">
    <path fill="var(--icon-color-primary, #000)" d="M 32.821 42.432 C 33.523 45.002 30.764 57.003 30.764 57.003 L 12.713 56.97 C 12.713 56.97 9.629 45.582 10.394 42.41 C 11.013 39.842 15.37 37.364 15.37 37.364 C 16.723 39.433 19.061 40.8 21.717 40.8 C 24.377 40.8 26.718 39.429 28.07 37.356 C 28.07 37.356 32.137 39.926 32.821 42.432 Z" style=""/>
    <circle fill="var(--icon-color-primary, #000)" style="stroke-width: 1.14823; vector-effect: non-scaling-stroke;" cx="21.781" cy="33.265" r="6.473"/>
  </g>
  <g style="" id="g-2" transform="matrix(1.352477, 0, 0, 1.352477, 82.206909, -8.899858)">
    <path fill="var(--icon-color-primary, #000)" d="M 32.821 42.432 C 33.523 45.002 30.764 57.003 30.764 57.003 L 12.713 56.97 C 12.713 56.97 9.629 45.582 10.394 42.41 C 11.013 39.842 15.37 37.364 15.37 37.364 C 16.723 39.433 19.061 40.8 21.717 40.8 C 24.377 40.8 26.718 39.429 28.07 37.356 C 28.07 37.356 32.137 39.926 32.821 42.432 Z" style=""/>
    <circle fill="var(--icon-color-primary, #000)" style="stroke-width: 1.14823; vector-effect: non-scaling-stroke;" cx="21.781" cy="33.265" r="6.473"/>
  </g>
</svg>
