<?xml version="1.0" encoding="UTF-8"?>
<!DOCTYPE svg PUBLIC "-//W3C//DTD SVG 1.1//EN" "http://www.w3.org/Graphics/SVG/1.1/DTD/svg11.dtd">
<svg version="1.1" xmlns="http://www.w3.org/2000/svg" xmlns:xlink="http://www.w3.org/1999/xlink" x="0" y="0" width="32px" height="32px" viewBox="0, 0, 128, 128">
  <g id="Layer_1">
    <path d="M85.288,18.988 C91.8,18.988 97.693,21.735 101.857,26.165 C107.041,25.146 111.914,23.285 116.3,20.672 C114.572,25.988 110.983,30.463 106.287,33.254 C110.895,32.678 115.281,31.481 119.357,29.665 C116.3,34.228 112.445,38.26 108.015,41.45 C108.059,42.424 108.059,43.399 108.059,44.374 C108.059,74.367 85.199,109.012 43.421,109.012 C30.618,109.012 18.656,105.246 8.643,98.867 C10.415,99.088 12.232,99.177 14.048,99.177 C24.681,99.177 34.472,95.544 42.269,89.43 C32.345,89.253 23.928,82.696 21.048,73.658 C22.421,73.924 23.839,74.057 25.301,74.057 C27.383,74.057 29.377,73.791 31.282,73.259 C20.915,71.177 13.074,61.962 13.074,50.975 L13.074,50.665 C16.13,52.348 19.63,53.367 23.352,53.5 C17.282,49.424 13.251,42.469 13.251,34.583 C13.251,30.418 14.358,26.52 16.308,23.152 C27.516,36.886 44.263,45.969 63.136,46.899 C62.782,45.215 62.56,43.488 62.56,41.716 C62.56,29.178 72.75,18.988 85.288,18.988 z" fill="#1DA1F2"/>
  </g>
</svg>
