<?xml version="1.0" encoding="UTF-8"?>
<!DOCTYPE svg PUBLIC "-//W3C//DTD SVG 1.1//EN" "http://www.w3.org/Graphics/SVG/1.1/DTD/svg11.dtd">
<svg version="1.1" xmlns="http://www.w3.org/2000/svg" xmlns:xlink="http://www.w3.org/1999/xlink" x="0" y="0" width="128" height="128" viewBox="0, 0, 128, 128">
  <g id="Layer_1">
    <path d="M63.613,4.206 C30.266,4.206 3.225,31.242 3.225,64.594 C3.225,91.275 20.528,113.911 44.522,121.896 C47.54,122.455 48.648,120.586 48.648,118.991 C48.648,117.551 48.592,112.794 48.566,107.748 C31.766,111.401 28.221,100.623 28.221,100.623 C25.474,93.643 21.516,91.787 21.516,91.787 C16.037,88.039 21.929,88.116 21.929,88.116 C27.993,88.542 31.186,94.339 31.186,94.339 C36.572,103.571 45.313,100.902 48.759,99.359 C49.301,95.456 50.866,92.792 52.593,91.284 C39.18,89.757 25.08,84.579 25.08,61.44 C25.08,54.847 27.439,49.46 31.302,45.231 C30.675,43.71 28.608,37.568 31.887,29.25 C31.887,29.25 36.958,27.627 48.498,35.44 C53.315,34.102 58.481,33.431 63.613,33.408 C68.745,33.431 73.915,34.102 78.741,35.44 C90.267,27.627 95.331,29.25 95.331,29.25 C98.618,37.568 96.55,43.71 95.923,45.231 C99.795,49.46 102.138,54.847 102.138,61.44 C102.138,84.634 88.011,89.741 74.564,91.236 C76.73,93.11 78.66,96.785 78.66,102.419 C78.66,110.499 78.59,117.002 78.59,118.991 C78.59,120.598 79.677,122.481 82.738,121.888 C106.719,113.894 124,91.266 124,64.594 C124,31.242 96.963,4.206 63.613,4.206" fill="#161514"/>
    <path d="M26.097,90.91 C25.964,91.21 25.492,91.3 25.062,91.094 C24.624,90.897 24.378,90.488 24.52,90.187 C24.65,89.878 25.123,89.792 25.56,89.999 C25.999,90.196 26.249,90.609 26.097,90.91" fill="#161514"/>
    <path d="M28.543,93.638 C28.255,93.905 27.692,93.781 27.31,93.359 C26.915,92.938 26.841,92.375 27.133,92.104 C27.43,91.837 27.976,91.962 28.372,92.383 C28.767,92.809 28.844,93.368 28.543,93.638" fill="#161514"/>
    <path d="M30.924,97.116 C30.554,97.373 29.949,97.132 29.575,96.595 C29.205,96.058 29.205,95.414 29.583,95.156 C29.958,94.898 30.554,95.13 30.933,95.663 C31.302,96.209 31.302,96.853 30.924,97.116" fill="#161514"/>
    <path d="M34.186,100.476 C33.855,100.841 33.15,100.743 32.634,100.245 C32.106,99.758 31.959,99.067 32.291,98.702 C32.626,98.336 33.335,98.439 33.855,98.933 C34.379,99.419 34.539,100.115 34.186,100.476" fill="#161514"/>
    <path d="M38.686,102.427 C38.54,102.9 37.861,103.115 37.177,102.914 C36.494,102.707 36.047,102.153 36.185,101.675 C36.327,101.199 37.009,100.975 37.698,101.19 C38.38,101.396 38.828,101.946 38.686,102.427" fill="#161514"/>
    <path d="M43.628,102.789 C43.645,103.287 43.065,103.7 42.347,103.709 C41.625,103.725 41.041,103.322 41.033,102.832 C41.033,102.329 41.6,101.92 42.322,101.908 C43.04,101.894 43.628,102.294 43.628,102.789" fill="#161514"/>
    <path d="M48.227,102.006 C48.313,102.492 47.814,102.991 47.101,103.124 C46.4,103.252 45.751,102.952 45.662,102.47 C45.575,101.972 46.083,101.473 46.783,101.344 C47.497,101.22 48.136,101.512 48.227,102.006" fill="#161514"/>
  </g>
</svg>
