<?xml version="1.0" encoding="UTF-8"?>
<!DOCTYPE svg PUBLIC "-//W3C//DTD SVG 1.1//EN" "http://www.w3.org/Graphics/SVG/1.1/DTD/svg11.dtd">
<svg version="1.1" xmlns="http://www.w3.org/2000/svg" xmlns:xlink="http://www.w3.org/1999/xlink" x="0" y="0" width="128" height="128" viewBox="0, 0, 128, 128">
  <g id="Layer_1">
    <path d="M64,10.103 C33.484,10.103 8.739,34.844 8.739,65.365 C8.739,89.78 24.573,110.495 46.53,117.802 C49.292,118.313 50.306,116.603 50.306,115.144 C50.306,113.826 50.255,109.473 50.231,104.855 C34.857,108.198 31.613,98.335 31.613,98.335 C29.099,91.947 25.477,90.249 25.477,90.249 C20.463,86.819 25.855,86.89 25.855,86.89 C31.404,87.279 34.326,92.584 34.326,92.584 C39.255,101.033 47.254,98.59 50.407,97.178 C50.903,93.607 52.336,91.169 53.916,89.789 C41.642,88.391 28.739,83.653 28.739,62.478 C28.739,56.445 30.897,51.515 34.432,47.645 C33.859,46.253 31.967,40.633 34.968,33.021 C34.968,33.021 39.608,31.536 50.169,38.686 C54.577,37.461 59.304,36.847 64,36.826 C68.697,36.847 73.428,37.461 77.844,38.686 C88.392,31.536 93.026,33.021 93.026,33.021 C96.034,40.633 94.141,46.253 93.568,47.645 C97.111,51.515 99.255,56.445 99.255,62.478 C99.255,83.703 86.327,88.377 74.022,89.745 C76.004,91.46 77.77,94.823 77.77,99.978 C77.77,107.372 77.706,113.323 77.706,115.144 C77.706,116.614 78.701,118.337 81.502,117.795 C103.447,110.479 119.261,89.772 119.261,65.365 C119.261,34.844 94.519,10.103 64,10.103" fill="#161514"/>
    <path d="M24.155,93.549 C24.034,93.824 23.602,93.906 23.208,93.718 C22.807,93.537 22.582,93.163 22.712,92.888 C22.831,92.605 23.264,92.526 23.664,92.716 C24.066,92.896 24.294,93.274 24.155,93.549" fill="#161514"/>
    <path d="M26.394,96.046 C26.13,96.29 25.615,96.177 25.265,95.79 C24.904,95.405 24.836,94.89 25.103,94.642 C25.375,94.398 25.875,94.512 26.237,94.897 C26.599,95.287 26.669,95.799 26.394,96.046" fill="#161514"/>
    <path d="M28.573,99.228 C28.234,99.464 27.68,99.243 27.338,98.752 C26.999,98.26 26.999,97.671 27.345,97.435 C27.689,97.199 28.234,97.411 28.581,97.899 C28.918,98.398 28.918,98.988 28.573,99.228" fill="#161514"/>
    <path d="M31.558,102.303 C31.255,102.637 30.61,102.548 30.137,102.092 C29.654,101.646 29.52,101.014 29.823,100.68 C30.13,100.345 30.779,100.439 31.255,100.891 C31.734,101.336 31.881,101.973 31.558,102.303" fill="#161514"/>
    <path d="M35.676,104.089 C35.542,104.521 34.921,104.718 34.295,104.534 C33.67,104.345 33.261,103.838 33.387,103.4 C33.517,102.965 34.141,102.76 34.771,102.957 C35.396,103.145 35.806,103.648 35.676,104.089" fill="#161514"/>
    <path d="M40.198,104.42 C40.214,104.876 39.683,105.254 39.026,105.262 C38.365,105.276 37.831,104.908 37.823,104.459 C37.823,103.999 38.342,103.625 39.003,103.614 C39.66,103.601 40.198,103.967 40.198,104.42" fill="#161514"/>
    <path d="M44.407,103.703 C44.485,104.148 44.029,104.605 43.376,104.726 C42.735,104.844 42.141,104.569 42.059,104.128 C41.98,103.672 42.445,103.216 43.085,103.098 C43.739,102.984 44.323,103.251 44.407,103.703" fill="#161514"/>
  </g>
</svg>
