<?xml version="1.0" encoding="UTF-8"?>
<!DOCTYPE svg PUBLIC "-//W3C//DTD SVG 1.1//EN" "http://www.w3.org/Graphics/SVG/1.1/DTD/svg11.dtd">
<svg version="1.1" xmlns="http://www.w3.org/2000/svg" xmlns:xlink="http://www.w3.org/1999/xlink" x="0" y="0" width="128" height="128" viewBox="0, 0, 128, 128">
  <g id="Layer_1">
    <path d="M112,-0 C120.832,-0 128,7.168 128,16 L128,112 C128,120.832 120.832,128 112,128 L16,128 C7.168,128 -0,120.832 -0,112 L-0,16 C-0,7.168 7.168,-0 16,-0 L112,-0 z M79.392,31.488 C70.336,31.488 62.976,38.848 62.976,47.904 C62.976,49.184 63.136,50.432 63.392,51.648 C49.76,50.976 37.664,44.416 29.568,34.496 C28.16,36.928 27.36,39.744 27.36,42.752 C27.36,48.448 30.272,53.472 34.656,56.416 C31.968,56.32 29.44,55.584 27.232,54.368 C27.232,54.432 27.232,54.496 27.232,54.592 C27.232,62.528 32.896,69.184 40.384,70.688 C39.008,71.072 37.568,71.264 36.064,71.264 C35.008,71.264 33.984,71.168 32.992,70.976 C35.072,77.504 41.152,82.24 48.32,82.368 C42.688,86.784 35.616,89.408 27.936,89.408 C26.624,89.408 25.312,89.344 24.032,89.184 C31.264,93.792 39.904,96.512 49.152,96.512 C79.328,96.512 95.84,71.488 95.84,49.824 C95.84,49.12 95.84,48.416 95.808,47.712 C99.008,45.408 101.792,42.496 104,39.2 C101.056,40.512 97.888,41.376 94.56,41.792 C97.952,39.776 100.544,36.544 101.792,32.704 C98.624,34.592 95.104,35.936 91.36,36.672 C88.352,33.472 84.096,31.488 79.392,31.488 z" fill="#1DA1F2"/>
  </g>
</svg>
